Coordinates
version=1
nRows=10
nColumns=63
inDegrees=yes

Units are S.I. units (second, meters, Newtons, ...)
If the header above contains a line with 'inDegrees', this indicates whether rotational values are in degrees (yes) or radians (no).

endheader
time	pelvis_tilt	pelvis_list	pelvis_rotation	pelvis_tx	pelvis_ty	pelvis_tz	hip_flexion_r	hip_adduction_r	hip_rotation_r	knee_angle_r	knee_angle_r_beta	ankle_angle_r	subtalar_angle_r	mtp_angle_r	hip_flexion_l	hip_adduction_l	hip_rotation_l	knee_angle_l	knee_angle_l_beta	ankle_angle_l	subtalar_angle_l	mtp_angle_l	L5_S1_Flex_Ext	L5_S1_Lat_Bending	L5_S1_axial_rotation	L4_L5_Flex_Ext	L4_L5_Lat_Bending	L4_L5_axial_rotation	L3_L4_Flex_Ext	L3_L4_Lat_Bending	L3_L4_axial_rotation	L2_L3_Flex_Ext	L2_L3_Lat_Bending	L2_L3_axial_rotation	L1_L2_Flex_Ext	L1_L2_Lat_Bending	L1_L2_axial_rotation	L1_T12_Flex_Ext	L1_T12_Lat_Bending	L1_T12_axial_rotation	Abs_r3	Abs_r2	Abs_r1	Abs_t1	Abs_t2	neck_flexion	neck_bending	neck_rotation	arm_flex_r	arm_add_r	arm_rot_r	elbow_flex_r	pro_sup_r	wrist_flex_r	wrist_dev_r	arm_flex_l	arm_add_l	arm_rot_l	elbow_flex_l	pro_sup_l	wrist_flex_l	wrist_dev_l
      4.15000000	      0.47436186	      0.45545519	     83.14290746	     -0.09943956	      0.78654878	      0.64078149	     -2.38700577	     -3.31160372	     -6.53083994	      9.67510471	      0.16886243	     28.81691729	     13.46907203	      0.00000000	     -4.97631576	      1.49033913	     -9.40647935	      4.33626413	      0.07568209	     29.48376005	      7.28098916	      0.00000000	     -0.22065053	      0.38252114	      2.89086960	     -0.40977011	      0.50875312	      3.07154896	     -0.36250676	      0.93006191	      3.07154896	     -0.25218150	      0.93006191	      2.52951090	     -0.20489609	      0.78003712	      2.34883155	     -0.12607972	      0.59252525	      2.16815220	     -1.57608470	      4.32715567	     16.07814948	      0.00000000	      0.00000000	     12.76028631	     -5.22001489	      7.44955612	     -4.58463038	    -16.92830461	    100.42831752	      9.36893526	      3.84507589	     -6.80294040	    -19.97232088	     59.12111418	    -13.85332433	    -10.78930299	    118.46416349	     86.95371737	     24.88581797	    -14.56269935
      4.16666667	      0.57408587	      0.57404205	     82.71797381	     -0.09879112	      0.78704832	      0.64128412	     -2.43601463	     -3.25192330	     -6.13332537	      9.78377291	      0.17075905	     28.57664762	     13.56403368	      0.00000000	     -5.13264300	      1.43593998	     -9.81670097	      4.28309795	      0.07475416	     29.38322441	      7.12687863	      0.00000000	     -0.19981657	      0.42100161	      2.91449673	     -0.37107935	      0.55993214	      3.09665277	     -0.32827864	      1.02362331	      3.09665277	     -0.22837036	      1.02362331	      2.55018464	     -0.18554967	      0.85850648	      2.36802859	     -0.11417519	      0.65213149	      2.18587255	     -1.42726976	      4.76245439	     16.20955646	      0.00000000	      0.00000000	     12.62445802	     -6.07714235	      7.17493825	     -4.57179746	    -17.14376192	    100.43552984	      9.45114812	      3.94949444	     -6.95563857	    -19.75913075	     56.80012492	    -14.01612655	    -11.05092605	    118.78562130	     87.56164841	     20.97333467	    -12.55478028
      4.18333333	      0.40360198	      0.77071899	     82.75646864	     -0.09845989	      0.78752335	      0.64216212	     -2.55505839	     -3.45146028	     -6.16712505	      9.93177784	      0.17334222	     28.48461074	     13.49325302	      0.00000000	     -5.19269861	      1.59631732	     -9.88312220	      4.43846180	      0.07746577	     29.31097319	      7.12795486	      0.00000000	     -0.20933313	      0.42175396	      2.94438180	     -0.38875255	      0.56093276	      3.12840566	     -0.34391339	      1.02545257	      3.12840566	     -0.23924683	      1.02545257	      2.57633407	     -0.19438674	      0.86004067	      2.39231021	     -0.11961295	      0.65329688	      2.20828635	     -1.49524560	      4.77096512	     16.37576823	      0.00000000	      0.00000000	     12.45504038	     -6.28733018	      7.06420925	     -4.60015404	    -17.13279295	    100.37930574	      9.40071856	      3.92024624	     -6.98431875	    -19.61840647	     55.00501683	    -13.98940201	    -11.19829616	    117.88454112	     87.90300249	     20.38393042	    -11.86006761
      4.20000000	      0.48793663	      0.77581596	     82.31540845	     -0.09784291	      0.78784161	      0.64285813	     -2.44363853	     -3.41236000	     -5.86399934	     10.08161886	      0.17595744	     28.31061927	     13.69320140	      0.00000000	     -5.20103355	      1.53356139	    -10.49376224	      4.42073237	      0.07715634	     29.26233293	      7.26780929	      0.00000000	     -0.20106599	      0.44868889	      3.08071185	     -0.37339966	      0.59675622	      3.27325634	     -0.33033132	      1.09094216	      3.27325634	     -0.22979832	      1.09094216	      2.69562287	     -0.18670988	      0.91496638	      2.50307838	     -0.11488911	      0.69501908	      2.31053389	     -1.43619428	      5.07565842	     17.13399511	      0.00000000	      0.00000000	     12.41946315	     -7.20015523	      6.25241440	     -4.74239398	    -17.21945048	     99.95459992	      9.39754834	      3.85088029	     -6.90367333	    -19.50681619	     52.76016685	    -13.86904057	    -11.12533408	    117.94176474	     88.26903884	     17.12354660	     -7.02057895
      4.21666667	      0.43797984	      0.76575432	     82.13229980	     -0.09729107	      0.78801877	      0.64368834	     -2.31364593	     -3.48453035	     -5.79587773	     10.24330798	      0.17877945	     28.20222768	     13.81131858	      0.00000000	     -5.09429531	      1.55472243	    -10.96265991	      4.48851878	      0.07833943	     29.24971151	      7.53191508	      0.00000000	     -0.20545921	      0.45040509	      3.22190974	     -0.38155830	      0.59903878	      3.42327910	     -0.33754893	      1.09511495	      3.42327910	     -0.23481933	      1.09511495	      2.81917103	     -0.19078942	      0.91846607	      2.61780167	     -0.11739939	      0.69767749	      2.41643231	     -1.46757458	      5.09507251	     17.91929542	      0.00000000	      0.00000000	     12.56645804	     -7.49478181	      5.60212194	     -4.94167276	    -17.09445298	     99.38747041	      9.27125013	      3.73014078	     -6.84851181	    -19.50122921	     51.00970510	    -13.58794893	    -11.03987035	    117.19726169	     88.43038809	     16.39759824	     -3.44457883
      4.23333333	      0.36495118	      0.80022958	     81.84990020	     -0.09664731	      0.78810332	      0.64463463	     -2.17962811	     -3.59595067	     -5.71754923	     10.43545244	      0.18213300	     28.18634994	     14.03711372	      0.00000000	     -5.03966406	      1.60962927	    -11.66090496	      4.50072283	      0.07855243	     29.37017892	      7.98411231	      0.00000000	     -0.22449336	      0.44152003	      3.38562840	     -0.41690662	      0.58722164	      3.59723018	     -0.36882014	      1.07351180	      3.59723018	     -0.25657346	      1.07351180	      2.96242485	     -0.20846453	      0.90034764	      2.75082308	     -0.12827551	      0.68391452	      2.53922130	     -1.60353363	      4.99456286	     18.82984948	      0.00000000	      0.00000000	     12.84478650	     -7.83614839	      4.65353886	     -5.07547297	    -16.98491221	     98.69569837	      9.27913579	      3.65014299	     -6.76282956	    -19.53982525	     49.48218876	    -13.12008735	    -11.24898480	    116.56478525	     88.45060853	     16.88032141	      1.42324375
      4.25000000	      0.35530481	      0.75863231	     81.54445590	     -0.09609610	      0.78802898	      0.64558882	     -1.93823394	     -3.63321464	     -5.63539339	     10.65300436	      0.18593000	     28.21173960	     14.26630690	      0.00000000	     -4.88677810	      1.58892470	    -12.31224656	      4.53266405	      0.07910991	     29.57296687	      8.38863273	      0.00000000	     -0.22605939	      0.43570702	      3.55188436	     -0.41981489	      0.57949033	      3.77387713	     -0.37139296	      1.05937804	      3.77387713	     -0.25836327	      1.05937804	      3.10789882	     -0.20991875	      0.88849375	      2.88590604	     -0.12917033	      0.67491017	      2.66391327	     -1.61471959	      4.92880491	     19.75451526	      0.00000000	      0.00000000	     12.95041347	     -8.12746531	      3.47617842	     -5.23442438	    -16.83184303	     98.10916625	      9.20787845	      3.58191334	     -6.87590313	    -19.52750234	     48.02022301	    -12.49017544	    -11.59852259	    116.04971368	     88.38609433	     17.57558314	      6.65469867
      4.26666667	      0.32138934	      0.82339192	     81.07342274	     -0.09522297	      0.78784314	      0.64658432	     -1.79440852	     -3.70024401	     -5.29969787	     10.81594166	      0.18877379	     28.37569113	     14.54392506	      0.00000000	     -4.90405806	      1.61588007	    -13.27804469	      4.46507112	      0.07793019	     29.90057356	      9.06938338	      0.00000000	     -0.24830089	      0.41604578	      3.67168114	     -0.46111958	      0.55334089	      3.90116121	     -0.40793353	      1.01157372	      3.90116121	     -0.28378309	      1.01157372	      3.21272100	     -0.23057221	      0.84840056	      2.98324093	     -0.14187913	      0.64445492	      2.75376085	     -1.77358842	      4.70639312	     20.42078899	      0.00000000	      0.00000000	     13.18008436	     -8.52260033	      2.07522088	     -5.07967914	    -16.82178564	     97.61228940	      9.50208062	      3.70443071	     -6.88095861	    -19.57838960	     46.73984718	    -12.06917881	    -12.48219362	    116.24878269	     88.15324762	     18.79402162	     14.32673530
      4.28333333	      0.33822730	      0.82373207	     80.75793451	     -0.09461640	      0.78759358	      0.64746788	     -1.63207547	     -3.69143549	     -5.07716943	     10.93903153	      0.19092212	     28.48976815	     14.72920617	      0.00000000	     -4.79808123	      1.55762413	    -14.14685981	      4.54572892	      0.07933794	     30.26845620	      9.76823118	      0.00000000	     -0.25284266	      0.40258649	      3.73326749	     -0.46955410	      0.53544004	      3.96659671	     -0.41539520	      0.97884880	      3.96659671	     -0.28897387	      0.97884880	      3.26660906	     -0.23478969	      0.82095438	      3.03327984	     -0.14447429	      0.62360648	      2.79995062	     -1.80602981	      4.55413895	     20.76331382	      0.00000000	      0.00000000	     13.18710054	     -8.54669690	      1.15535745	     -4.92624121	    -16.72960326	     97.42014263	      9.54488351	      3.85502566	     -7.02823908	    -19.67653675	     45.26681768	    -11.65863579	    -13.39428185	    116.41754496	     87.64410249	     19.19250996	     19.97466203
      4.30000000	      0.30736945	      0.91745147	     80.60796793	     -0.09414947	      0.78734425	      0.64808114	     -1.65021448	     -3.73158775	     -4.93422016	     10.98615789	      0.19174463	     28.67196655	     14.81742030	      0.00000000	     -4.82602956	      1.57020396	    -14.24399031	      4.58947139	      0.08010139	     30.50247399	      9.82376636	      0.00000000	     -0.26633203	      0.38008607	      3.72389268	     -0.49460521	      0.50551447	      3.95663597	     -0.43755689	      0.92414127	      3.95663597	     -0.30439088	      0.92414127	      3.25840609	     -0.24731592	      0.77507152	      3.02566280	     -0.15218212	      0.58875332	      2.79291951	     -1.90238305	      4.29960965	     20.71117390	      0.00000000	      0.00000000	     13.15197645	     -8.23516791	      0.52151098	     -4.70305381	    -16.55649056	     97.40433754	      9.46870214	      3.87145838	     -7.04063556	    -19.83473678	     43.45557710	    -11.52677041	    -14.22920141	    116.15573645	     87.31337111	     18.97004617	     20.48456509
